Coordinates
version=1
nRows=10
nColumns=63
inDegrees=yes

Units are S.I. units (second, meters, Newtons, ...)
If the header above contains a line with 'inDegrees', this indicates whether rotational values are in degrees (yes) or radians (no).

endheader
time	pelvis_tilt	pelvis_list	pelvis_rotation	pelvis_tx	pelvis_ty	pelvis_tz	hip_flexion_r	hip_adduction_r	hip_rotation_r	knee_angle_r	knee_angle_r_beta	ankle_angle_r	subtalar_angle_r	mtp_angle_r	hip_flexion_l	hip_adduction_l	hip_rotation_l	knee_angle_l	knee_angle_l_beta	ankle_angle_l	subtalar_angle_l	mtp_angle_l	L5_S1_Flex_Ext	L5_S1_Lat_Bending	L5_S1_axial_rotation	L4_L5_Flex_Ext	L4_L5_Lat_Bending	L4_L5_axial_rotation	L3_L4_Flex_Ext	L3_L4_Lat_Bending	L3_L4_axial_rotation	L2_L3_Flex_Ext	L2_L3_Lat_Bending	L2_L3_axial_rotation	L1_L2_Flex_Ext	L1_L2_Lat_Bending	L1_L2_axial_rotation	L1_T12_Flex_Ext	L1_T12_Lat_Bending	L1_T12_axial_rotation	Abs_r3	Abs_r2	Abs_r1	Abs_t1	Abs_t2	neck_flexion	neck_bending	neck_rotation	arm_flex_r	arm_add_r	arm_rot_r	elbow_flex_r	pro_sup_r	wrist_flex_r	wrist_dev_r	arm_flex_l	arm_add_l	arm_rot_l	elbow_flex_l	pro_sup_l	wrist_flex_l	wrist_dev_l
      0.00000000	     -1.47597409	     -2.88797458	     97.97924676	      0.12335962	      0.92870927	      0.54759758	      0.58238154	     -3.28740781	    -21.90673394	     15.27006015	      0.26651283	     28.41294835	      6.80120679	      0.00000000	      2.23329341	      2.25467707	     21.14925969	      7.16019539	      0.12496898	     24.95980360	     -4.36733328	      0.00000000	      0.24816089	     -0.14987725	     -1.99958460	      0.46085958	     -0.19933674	     -2.12455864	      0.40770352	     -0.36441154	     -2.12455864	      0.28362308	     -0.36441154	     -1.74963653	      0.23044220	     -0.30562968	     -1.62466249	      0.14179913	     -0.23215986	     -1.49968845	      1.77258840	     -1.69544139	    -11.12108968	      0.00000000	      0.00000000	     25.44883204	      3.50858265	      3.53495333	      8.10566328	     -0.67222854	     35.45257338	     38.55252091	     62.16161441	     11.05204342	     25.10268518	     14.63650930	     -4.52385626	     55.25709728	     41.61264790	     87.57760048	      7.24520704	      4.39078082
      0.01694915	     -1.35931558	     -3.12875188	     97.44304960	      0.12263898	      0.92872619	      0.54980230	      1.01534066	     -3.31263956	    -21.66717811	     15.13450472	      0.26414694	     28.32029589	      7.30218786	      0.00000000	      2.42731187	      2.26753508	     21.49382763	      6.94544489	      0.12122088	     25.14385596	     -5.20573684	      0.00000000	      0.24857615	     -0.11377651	     -1.94554223	      0.46163078	     -0.15132276	     -2.06713862	      0.40838576	     -0.27663621	     -2.06713862	      0.28409769	     -0.27663621	     -1.70234945	      0.23082782	     -0.23201306	     -1.58075306	      0.14203641	     -0.17623981	     -1.45915667	      1.77555462	     -1.28706264	    -10.82052222	      0.00000000	      0.00000000	     25.44919921	      3.25788610	      4.00019302	      8.28418953	     -1.19121443	     35.02886691	     39.70298762	     64.15876859	     10.75309595	     24.89973338	     14.67405060	     -4.50218133	     54.54435462	     42.49509949	     87.01260198	      7.90110374	      5.56181441
      0.03389831	     -1.39554332	     -3.23731658	     97.31340939	      0.12179602	      0.92901513	      0.55172183	      1.22346237	     -3.42383192	    -21.73639126	     15.02145895	      0.26217392	     28.22401584	      7.27785729	      0.00000000	      2.53005418	      2.38970733	     21.53890085	      6.84140205	      0.11940499	     25.26073526	     -5.21924138	      0.00000000	      0.24044928	     -0.10548239	     -1.94550754	      0.44653835	     -0.14029158	     -2.06710176	      0.39503412	     -0.25646989	     -2.06710176	      0.27480948	     -0.25646989	     -1.70231910	      0.22328120	     -0.21509969	     -1.58072488	      0.13739272	     -0.16339223	     -1.45913066	      1.71750514	     -1.19323792	    -10.82032929	      0.00000000	      0.00000000	     25.36234644	      3.24890316	      4.00691663	      8.70888836	     -1.34395139	     34.85744380	     39.88837429	     64.17367940	     10.74560567	     24.84276203	     14.95275119	     -4.43655211	     54.44538399	     42.74527421	     86.97760321	      7.92670671	      5.52607573
      0.05084746	     -1.20027365	     -3.49268234	     96.73395101	      0.12169606	      0.92874524	      0.55272344	      1.64673846	     -3.34431735	    -21.64276155	     14.99412881	      0.26169692	     28.01753170	      7.81996648	      0.00000000	      2.66670269	      2.24108330	     21.77539622	      6.59557356	      0.11511447	     25.19185531	     -5.96358883	      0.00000000	      0.26453361	     -0.06001326	     -1.83690067	      0.49126536	     -0.07981763	     -1.95170696	      0.43460226	     -0.14591624	     -1.95170696	      0.30233546	     -0.14591624	     -1.60728809	      0.24564591	     -0.12237904	     -1.49248180	      0.15115450	     -0.09296054	     -1.37767550	      1.88953709	     -0.67888199	    -10.21629047	      0.00000000	      0.00000000	     25.70163503	      2.84257834	      4.88462134	      8.53091450	     -1.88973879	     34.17627240	     41.04828665	     65.14276271	     10.47894357	     24.62788923	     15.17117614	     -4.30906254	     54.37531838	     43.27365630	     86.88890762	      8.21505740	      6.42634119
      0.06779661	     -1.24346779	     -3.53397107	     96.46683950	      0.12155654	      0.92880851	      0.55331021	      1.71119981	     -3.49533896	    -22.13905660	     14.95639023	      0.26103825	     28.01677717	      8.69462299	      0.00000000	      2.43570346	      2.39586903	     24.14572797	      6.21017391	      0.10838798	     24.02902278	     -9.70028322	      0.00000000	      0.26461487	     -0.05366211	     -1.77503995	      0.49141628	     -0.07137061	     -1.88597994	      0.43473577	     -0.13047405	     -1.88597994	      0.30242834	     -0.13047405	     -1.55315995	      0.24572137	     -0.10942778	     -1.44221996	      0.15120094	     -0.08312261	     -1.33127996	      1.89011757	     -0.60703652	     -9.87223967	      0.00000000	      0.00000000	     25.86244518	      2.78591012	      5.06583339	      8.13776349	     -1.62368143	     31.77486659	     41.53199531	     67.64631831	     10.93940270	     25.01306014	     15.52287293	     -4.25362153	     54.68900892	     43.48645118	     87.07752039	      7.93934793	      6.68637241
      0.08474576	     -1.25195922	     -3.54869505	     96.14721650	      0.12168334	      0.92889605	      0.55372758	      1.80178656	     -3.53523319	    -22.02518531	     14.96888255	      0.26125629	     27.92934079	      8.84567164	      0.00000000	      2.28047997	      2.40613811	     24.57659567	      5.95913591	      0.10400654	     23.47141365	    -10.67954976	      0.00000000	      0.26772670	     -0.04477871	     -1.71757106	      0.49719526	     -0.05955569	     -1.82491925	      0.43984820	     -0.10887496	     -1.82491925	      0.30598485	     -0.10887496	     -1.50287468	      0.24861102	     -0.09131275	     -1.39552649	      0.15297904	     -0.06936222	     -1.28817830	      1.91234506	     -0.50654574	     -9.55261498	      0.00000000	      0.00000000	     26.02490758	      2.77508793	      5.32842573	      8.13914150	     -1.69102819	     31.40358823	     41.70761633	     66.90498927	     10.50086039	     24.93545713	     15.92594664	     -4.16698088	     55.11193908	     43.49553375	     87.41998450	      7.52754026	      6.78000727
      0.10169492	     -1.29495378	     -3.52300085	     95.84797688	      0.12201552	      0.92898515	      0.55374361	      1.83082524	     -3.57436964	    -21.74910353	     14.99883797	      0.26177911	     27.85632373	      8.81147971	      0.00000000	      2.14712442	      2.39959309	     23.93889156	      5.82600838	      0.10168303	     23.35157086	    -10.14291380	      0.00000000	      0.27152218	     -0.04356998	     -1.66836941	      0.50424383	     -0.05794807	     -1.77264249	      0.44608378	     -0.10593604	     -1.77264249	      0.31032269	     -0.10593604	     -1.45982323	      0.25213549	     -0.08884790	     -1.35555014	      0.15514777	     -0.06748989	     -1.25127705	      1.93945575	     -0.49287229	     -9.27897013	      0.00000000	      0.00000000	     26.14897940	      2.76850042	      5.55174108	      8.16643511	     -1.72095721	     31.41695822	     41.66863219	     65.77912058	      9.88699169	     24.96980055	     16.32728439	     -4.13438123	     55.70489460	     43.43851964	     87.81408484	      6.95012816	      6.54916514
      0.11864407	     -1.32565574	     -3.43202429	     95.66260361	      0.12233346	      0.92911311	      0.55362322	      1.77557419	     -3.58474852	    -21.52416331	     15.03917232	      0.26248307	     27.83545640	      8.73856826	      0.00000000	      1.95719885	      2.37976283	     23.46496965	      5.69517377	      0.09939953	     23.21679388	     -9.76356110	      0.00000000	      0.26668246	     -0.04254316	     -1.63671119	      0.49525600	     -0.05658240	     -1.73900564	      0.43813262	     -0.10343944	     -1.73900564	      0.30479139	     -0.10343944	     -1.43212229	      0.24764133	     -0.08675401	     -1.32982784	      0.15238236	     -0.06589935	     -1.22753340	      1.90488615	     -0.48125672	     -9.10289664	      0.00000000	      0.00000000	     26.29755829	      2.79698385	      5.70565898	      8.24768520	     -1.70215677	     31.55560539	     41.40085119	     65.08844737	      9.42379158	     25.03473650	     16.82199501	     -4.05483149	     56.49802415	     43.29060533	     88.03186550	      6.46702992	      6.46515516
      0.13559322	     -1.36964197	     -3.32826559	     95.59261937	      0.12275550	      0.92921838	      0.55336460	      1.68280511	     -3.57452513	    -21.29354865	     15.06895308	      0.26300285	     27.88506226	      8.46235958	      0.00000000	      1.80096411	      2.35653161	     22.75742479	      5.59982468	      0.09773538	     23.29038094	     -8.94635348	      0.00000000	      0.26093323	     -0.04845612	     -1.62176983	      0.48457911	     -0.06444664	     -1.72313044	      0.42868721	     -0.11781621	     -1.72313044	      0.29822059	     -0.11781621	     -1.41904860	      0.24230260	     -0.09881172	     -1.31768798	      0.14909725	     -0.07505853	     -1.21632737	      1.86381999	     -0.54814534	     -9.01979724	      0.00000000	      0.00000000	     26.46549812	      2.89480023	      5.77226838	      8.27654595	     -1.66015061	     31.80188633	     41.10750677	     64.24123823	      8.91610853	     25.03281938	     17.33330993	     -4.04784621	     57.50846394	     43.19012730	     88.26509674	      5.90612607	      6.28475450
      0.15254237	     -1.45158398	     -3.29698575	     95.54070823	      0.12309646	      0.92925051	      0.55256030	      1.61350377	     -3.68894370	    -21.59757433	     15.14225604	      0.26428222	     28.01407297	      8.85115506	      0.00000000	      1.56144562	      2.37741522	     22.76062911	      5.23819488	      0.09142375	     23.12028124	     -9.05103714	      0.00000000	      0.27563965	     -0.05898513	     -1.59673296	      0.51189039	     -0.07845023	     -1.69652877	      0.45284838	     -0.14341645	     -1.69652877	      0.31502855	     -0.14341645	     -1.39714134	      0.25595898	     -0.12028248	     -1.29734553	      0.15750050	     -0.09136797	     -1.19754972	      1.96886645	     -0.66725163	     -8.88054970	      0.00000000	      0.00000000	     26.46591649	      2.95765270	      5.85933474	      7.95878624	     -1.50270656	     31.32172782	     41.07280788	     63.12312687	      8.14342243	     25.86342608	     17.64896135	     -4.04289510	     58.66850685	     43.05419702	     88.43719114	      4.72804797	      5.34853057
